<?xml version="1.0" encoding="UTF-8" standalone="no"?>
<svg xmlns:dc="http://purl.org/dc/elements/1.1/" xmlns:cc="http://creativecommons.org/ns#"
  xmlns:rdf="http://www.w3.org/1999/02/22-rdf-syntax-ns#" xmlns:svg="http://www.w3.org/2000/svg"
  xmlns="http://www.w3.org/2000/svg" viewBox="0 0 2000 2000" height="2000" width="2000" xml:space="preserve" id="svg2"
  version="1.1">
  <metadata id="metadata8">
    <rdf:RDF>
      <cc:Work rdf:about="">
        <dc:format>image/svg+xml</dc:format>
        <dc:type rdf:resource="http://purl.org/dc/dcmitype/StillImage" />
      </cc:Work>
    </rdf:RDF>
  </metadata>
  <defs id="defs6">
    <clipPath id="clipPath20" clipPathUnits="userSpaceOnUse">
      <path id="path18" d="M 0,1500 H 1500 V 0 H 0 Z" />
    </clipPath>
  </defs>
  <g transform="matrix(1.3333333,0,0,-1.3333333,0,2000)" id="g10">
    <path id="path12" style="fill:#1a1a1a;fill-opacity:1;fill-rule:nonzero;stroke:none" d="M 0,0 H 1500 V 1500 H 0 Z" />
    <g id="g14">
      <g clip-path="url(#clipPath20)" id="g16">
        <g transform="translate(980.9111,648.1138)" id="g22">
          <path id="path24" style="fill:#6f6f6e;fill-opacity:1;fill-rule:nonzero;stroke:none"
            d="m 0,0 c -22.336,-27.123 -52.081,-42.328 -83.727,-42.813 h -0.509 l -18.472,-0.011 -89.985,289.423 h 78.577 29.88 0.481 C -52.081,246.115 -22.336,230.91 0,203.787 22.471,176.5 34.845,140.312 34.845,101.892 34.845,63.474 22.471,27.287 0,0 m 53.081,159.941 c -7.462,17.77 -18.151,33.752 -31.771,47.511 -13.613,13.748 -29.484,24.594 -47.168,32.234 -18.297,7.903 -37.755,12.017 -57.822,12.231 h -99.882 v 0.003 h -47.451 v -0.003 -5.314 -0.004 h 9.133 l 89.295,-289.426 h -9.133 v -0.003 -5.315 -0.003 h 55.516 l 1.966,0.022 h 0.545 c 20.078,0.209 39.536,4.323 57.833,12.227 17.684,7.64 33.555,18.485 47.168,32.234 13.62,13.755 24.309,29.741 31.771,47.507 7.726,18.4 11.643,37.929 11.643,58.05 0,20.12 -3.917,39.653 -11.643,58.049" />
        </g>
        <g transform="translate(516.5811,703.5562)" id="g26">
          <path id="path28" style="fill:#6f6f6e;fill-opacity:1;fill-rule:nonzero;stroke:none"
            d="M 0,0 -44.925,145.609 C -59.703,100.072 -80.101,40.309 -97.646,0 Z m 70.27,-98.269 v -5.314 H 31.959 L 1.642,-5.314 H -99.993 c -3.744,-8.345 -7.209,-15.397 -10.322,-21.015 l 0.014,-0.006 -0.979,-1.71 -0.973,-1.699 -0.014,0.007 c -12.737,-21.57 -30.781,-39.735 -52.287,-52.618 -22.713,-13.606 -48.779,-20.947 -75.378,-21.228 h -3.209 c -20.099,0.21 -39.56,4.324 -57.854,12.231 -17.687,7.64 -33.555,18.482 -47.168,32.23 -13.62,13.756 -24.313,29.741 -31.774,47.511 -7.726,18.396 -11.644,37.925 -11.644,58.046 0,20.12 3.918,39.653 11.644,58.05 7.461,17.769 18.154,33.751 31.774,47.51 13.613,13.749 29.481,24.594 47.168,32.234 18.297,7.904 37.755,12.018 57.833,12.231 h 3.209 c 31.344,-0.331 61.259,-10.215 86.533,-28.59 12.182,-8.854 22.941,-19.454 31.978,-31.508 9.136,-12.181 16.331,-25.612 21.385,-39.913 l 1.253,-3.544 h -28.91 l -0.563,1.909 c -8.15,27.679 -22.945,51.479 -42.781,68.821 -20.124,17.592 -43.923,27.101 -68.835,27.508 h -3.23 c -31.646,-0.481 -61.394,-15.686 -83.733,-42.813 -22.468,-27.29 -34.845,-63.474 -34.845,-101.895 0,-38.417 12.377,-74.605 34.845,-101.892 22.339,-27.126 52.083,-42.328 83.762,-42.812 l 3.127,0.003 c 25.637,0.267 50.777,7.349 72.681,20.47 21.289,12.754 39.062,30.874 51.393,52.397 20.505,35.874 51.475,127.811 68.244,179.848 l -12.969,42.032 h 30.126 l 90.935,-294.75 z" />
        </g>
        <g transform="translate(597.9937,599.9521)" id="g30">
          <path id="path32" style="fill:#6f6f6e;fill-opacity:1;fill-rule:nonzero;stroke:none"
            d="M 0,0 H 161.442 L 145.504,51.5 H 140.18 C 140.18,26.005 119.499,5.325 94.005,5.325 h -54.98 l -89.977,294.771 h -39.027 v -5.325 h 9.156 L 9.155,5.325 H 0 Z" />
        </g>
        <g transform="translate(1223.4038,894.7129)" id="g34">
          <path id="path36" style="fill:#6f6f6e;fill-opacity:1;fill-rule:nonzero;stroke:none"
            d="m 0,0 c -31.667,-0.488 -61.408,-15.693 -83.741,-42.813 -22.471,-27.29 -34.844,-63.474 -34.844,-101.895 0,-38.417 12.373,-74.604 34.844,-101.891 22.336,-27.123 52.08,-42.328 83.755,-42.813 h 3.135 c 31.643,0.485 61.391,15.69 83.726,42.813 22.472,27.287 34.845,63.474 34.845,101.891 0,38.421 -12.373,74.605 -34.845,101.895 C 64.54,-15.689 34.792,-0.484 3.117,0 Z m -136.825,-202.757 c -7.726,18.396 -11.644,37.929 -11.644,58.049 0,20.125 3.918,39.654 11.644,58.05 7.462,17.77 18.154,33.752 31.774,47.507 13.613,13.752 29.481,24.598 47.169,32.237 C -39.589,0.99 -20.131,5.104 -0.05,5.314 H 3.16 C 23.262,5.104 42.72,0.99 61.017,-6.914 c 17.684,-7.639 33.552,-18.485 47.165,-32.237 13.62,-13.755 24.309,-29.737 31.771,-47.507 7.725,-18.396 11.643,-37.929 11.643,-58.05 0,-20.12 -3.918,-39.653 -11.643,-58.049 -7.462,-17.766 -18.151,-33.752 -31.771,-47.507 -13.613,-13.749 -29.481,-24.594 -47.165,-32.234 -18.297,-7.904 -37.755,-12.018 -57.836,-12.228 h -3.209 c -20.099,0.21 -39.557,4.324 -57.854,12.228 -17.688,7.64 -33.556,18.485 -47.169,32.234 -13.62,13.755 -24.309,29.741 -31.774,47.507" />
        </g>
        <g transform="translate(787.9307,605.2871)" id="g38">
          <path id="path40" style="fill:#6f6f6e;fill-opacity:1;fill-rule:nonzero;stroke:none"
            d="m 0,0 -89.295,289.429 h -9.133 v 5.318 h 48.395 v -5.318 h -9.133 L 30.129,0 h 9.133 V -5.318 H -9.133 V 0 Z" />
        </g>
        <g transform="translate(1340.7456,897.5269)" id="g42">
          <path id="path44" style="fill:#6f6f6e;fill-opacity:1;fill-rule:nonzero;stroke:none"
            d="M 0,0 H -4.169 V -12.957 H -6.837 V 0 h -4.192 V 2.511 H 0 Z" />
        </g>
        <g transform="translate(1359.8208,900.0376)" id="g46">
          <path id="path48" style="fill:#6f6f6e;fill-opacity:1;fill-rule:nonzero;stroke:none"
            d="m 0,0 v -15.468 h -2.667 v 10.985 l -4.797,-10.985 h -1.884 l -4.775,10.94 v -10.94 h -2.668 V 0 h 3.476 L -8.361,-11.365 -3.43,0 Z" />
        </g>
      </g>
    </g>
  </g>
</svg>